<svg xmlns="http://www.w3.org/2000/svg" version="1.1" xmlns:xlink="http://www.w3.org/1999/xlink" xmlns:svgjs="http://svgjs.dev/svgjs" width="1500" height="1500" viewBox="0 0 1500 1500"><rect width="1500" height="1500" fill="#afeeda"></rect><g transform="matrix(0.6666666666666666,0,0,0.6666666666666666,249.39393939393938,643.6761571197865)"><svg viewBox="0 0 396 84" data-background-color="#afeeda" preserveAspectRatio="xMidYMid meet" height="318" width="1500" xmlns="http://www.w3.org/2000/svg" xmlns:xlink="http://www.w3.org/1999/xlink"><g id="tight-bounds" transform="matrix(1,0,0,1,0.2400000000000091,0.12831510348081565)"><svg viewBox="0 0 395.52 83.7433697930384" height="83.7433697930384" width="395.52"><g><svg viewBox="0 0 516.5540735852893 109.36988977132192" height="83.7433697930384" width="395.52"><g transform="matrix(1,0,0,1,121.03407358528932,15.115520221651586)"><svg viewBox="0 0 395.52 79.13884932801875" height="79.13884932801875" width="395.52"><g id="textblocktransform"><svg viewBox="0 0 395.52 79.13884932801875" height="79.13884932801875" width="395.52" id="textblock"><g><svg viewBox="0 0 395.52 49.27884099963781" height="49.27884099963781" width="395.52"><g transform="matrix(1,0,0,1,0,0)"><svg width="395.52" viewBox="1.95 -32.98 269.61 33.589999999999996" height="49.27884099963781" data-palette-color="#2e2e3a"><g class="wordmark-text-0" data-fill-palette-color="primary" id="text-0"><path d="M9.77 0.61L9.77 0.61Q6.18 0.61 4.06-1.4 1.95-3.42 1.95-6.96L1.95-6.96Q1.95-8.79 2.62-10.36 3.3-11.94 4.97-13.15 6.64-14.36 9.66-15.09 12.67-15.82 17.36-15.94L17.36-15.94Q17.36-18.16 16.25-19.14 15.14-20.12 12.92-20.12L12.92-20.12Q10.91-20.12 9.64-19.43 8.37-18.75 8.06-18.51L8.06-18.51Q7.71-18.21 7.23-18.29L7.23-18.29Q6.57-18.38 5.82-18.63 5.08-18.87 4.22-19.19L4.22-19.19Q4.1-19.24 3.96-19.35 3.81-19.46 3.78-19.68L3.78-19.68Q3.78-19.8 3.81-19.98 3.83-20.17 3.93-20.65L3.93-20.65Q4.03-21.14 4.22-21.86 4.42-22.58 4.59-22.97L4.59-22.97Q4.81-23.39 5.32-23.75L5.32-23.75Q5.74-24.1 7.84-24.85 9.94-25.61 13.92-25.61L13.92-25.61Q24.88-25.61 24.88-14.94L24.88-14.94 24.88-1.12Q24.88-0.66 24.62-0.33 24.37 0 23.75 0L23.75 0 20.09 0Q19.7 0 19.4-0.11 19.09-0.22 18.82-0.54L18.82-0.54 17.31-2.49 17.14-2.49Q16.02-0.85 14.12-0.12 12.23 0.61 9.77 0.61ZM12.45-5.05L12.45-5.05Q14.7-5.05 15.84-6.2 16.99-7.35 17.31-8.57L17.31-8.57 17.31-11.28Q13.92-11.28 12.22-10.75 10.52-10.23 9.96-9.39 9.4-8.54 9.4-7.57L9.4-7.57Q9.4-6.15 10.28-5.6 11.16-5.05 12.45-5.05ZM43.92-25.61L43.92-25.61Q46.82-25.61 48.14-25.13 49.46-24.66 49.8-24.39L49.8-24.39Q50.34-24.05 50.63-23.51L50.63-23.51Q50.8-23.24 51.02-22.58 51.24-21.92 51.34-21.14L51.34-21.14Q51.46-20.53 51.36-20.28 51.27-20.02 50.75-19.65L50.75-19.65Q50.17-19.26 49.47-18.96 48.78-18.65 48.34-18.53L48.34-18.53Q47.97-18.43 47.78-18.48 47.58-18.53 47.24-18.77L47.24-18.77Q46.85-19.04 46.14-19.37 45.43-19.7 44.19-19.7L44.19-19.7Q42.6-19.7 41.17-18.92 39.74-18.14 38.85-16.58 37.96-15.01 37.96-12.67L37.96-12.67Q37.96-9.16 39.8-7.23 41.65-5.3 44.75-5.3L44.75-5.3Q46.34-5.3 47.39-5.63 48.44-5.96 49.05-6.3L49.05-6.3Q49.53-6.57 49.79-6.43 50.05-6.3 50.19-5.96L50.19-5.96 51.98-1.93Q52.24-1.29 51.68-1.03L51.68-1.03Q50.78-0.56 48.7 0.02 46.63 0.61 43.58 0.61L43.58 0.61Q37.45 0.61 33.79-2.65 30.12-5.91 30.12-12.4L30.12-12.4Q30.12-16.55 31.81-19.51 33.49-22.46 36.59-24.04 39.69-25.61 43.92-25.61ZM68.4-25.61L68.4-25.61Q71.31-25.61 72.63-25.13 73.95-24.66 74.29-24.39L74.29-24.39Q74.82-24.05 75.12-23.51L75.12-23.51Q75.29-23.24 75.51-22.58 75.73-21.92 75.83-21.14L75.83-21.14Q75.95-20.53 75.85-20.28 75.75-20.02 75.24-19.65L75.24-19.65Q74.65-19.26 73.96-18.96 73.26-18.65 72.82-18.53L72.82-18.53Q72.46-18.43 72.26-18.48 72.07-18.53 71.72-18.77L71.72-18.77Q71.33-19.04 70.62-19.37 69.92-19.7 68.67-19.7L68.67-19.7Q67.08-19.7 65.66-18.92 64.23-18.14 63.34-16.58 62.45-15.01 62.45-12.67L62.45-12.67Q62.45-9.16 64.29-7.23 66.13-5.3 69.23-5.3L69.23-5.3Q70.82-5.3 71.87-5.63 72.92-5.96 73.53-6.3L73.53-6.3Q74.02-6.57 74.27-6.43 74.53-6.3 74.68-5.96L74.68-5.96 76.46-1.93Q76.73-1.29 76.17-1.03L76.17-1.03Q75.26-0.56 73.19 0.02 71.11 0.61 68.06 0.61L68.06 0.61Q61.93 0.61 58.27-2.65 54.61-5.91 54.61-12.4L54.61-12.4Q54.61-16.55 56.29-19.51 57.98-22.46 61.08-24.04 64.18-25.61 68.4-25.61ZM92.69 0.61L92.69 0.61Q88.57 0.61 85.51-0.72 82.46-2.05 80.78-4.86 79.09-7.67 79.09-12.11L79.09-12.11Q79.09-18.77 82.51-22.19 85.93-25.61 91.59-25.61L91.59-25.61Q95.28-25.61 97.83-24.29 100.38-22.97 101.71-20.65 103.04-18.33 103.04-15.36L103.04-15.36Q103.04-12.45 101.56-11.3 100.07-10.16 97.21-10.16L97.21-10.16 86.74-10.16Q86.93-7.64 88.58-6.32 90.23-5 93.06-5L93.06-5Q95.31-5 96.66-5.68 98.01-6.35 98.55-6.74L98.55-6.74Q99.02-7.08 99.6-7.06L99.6-7.06Q100.07-7.06 100.93-6.87 101.8-6.69 102.65-6.2L102.65-6.2Q103.26-5.88 103.26-5.32L103.26-5.32Q103.26-5 103.14-4.42L103.14-4.42Q103.07-4.08 102.9-3.43 102.73-2.78 102.46-2.22L102.46-2.22Q102.31-1.95 101.99-1.71L101.99-1.71Q101.51-1.37 100.42-0.81 99.33-0.24 97.45 0.18 95.57 0.61 92.69 0.61ZM86.69-15.16L86.69-15.16 94.65-15.16Q95.89-15.16 95.89-16.31L95.89-16.31Q95.89-18.04 94.8-19.23 93.72-20.41 91.55-20.41L91.55-20.41Q89.18-20.41 88.07-18.9 86.96-17.38 86.69-15.16ZM115.37 0.61L115.37 0.61Q112.76 0.61 111.04 0.17 109.32-0.27 108.28-0.89 107.24-1.51 106.66-2.03L106.66-2.03Q106.22-2.44 106.56-2.95L106.56-2.95 109.05-6.64Q109.58-7.42 110.27-6.74L110.27-6.74Q110.98-6.05 112.18-5.41 113.39-4.76 115.2-4.76L115.2-4.76Q116.81-4.76 117.85-5.31 118.89-5.86 118.89-6.91L118.89-6.91Q118.89-7.64 118.42-8.11 117.96-8.57 116.79-9.06 115.62-9.55 113.52-10.3L113.52-10.3Q110.41-11.43 108.83-13.01 107.24-14.6 107.24-17.65L107.24-17.65Q107.24-20.46 108.79-22.22 110.34-23.97 112.77-24.79 115.2-25.61 117.84-25.61L117.84-25.61Q121.18-25.61 122.54-24.99 123.89-24.37 124.28-24.02L124.28-24.02Q124.65-23.71 124.79-23.29L124.79-23.29Q125.11-22.34 125.28-20.78L125.28-20.78Q125.38-19.87 124.82-19.58L124.82-19.58Q124.53-19.41 123.89-19.21 123.26-19.02 122.62-18.87 121.99-18.73 121.67-18.73L121.67-18.73Q121.57-18.73 121.46-18.79 121.35-18.85 121.08-19.09L121.08-19.09Q120.77-19.41 120-19.82 119.23-20.24 117.89-20.24L117.89-20.24Q116.57-20.24 115.68-19.81 114.78-19.38 114.78-18.31L114.78-18.31Q114.78-17.14 115.92-16.55 117.06-15.97 119.67-15.04L119.67-15.04Q121.72-14.33 123.24-13.49 124.77-12.65 125.6-11.29 126.43-9.94 126.43-7.64L126.43-7.64Q126.43-4.66 124.81-2.84 123.18-1.03 120.66-0.21 118.13 0.61 115.37 0.61ZM138.15 0.61L138.15 0.61Q135.53 0.61 133.81 0.17 132.09-0.27 131.05-0.89 130.02-1.51 129.43-2.03L129.43-2.03Q128.99-2.44 129.33-2.95L129.33-2.95 131.82-6.64Q132.36-7.42 133.04-6.74L133.04-6.74Q133.75-6.05 134.96-5.41 136.17-4.76 137.98-4.76L137.98-4.76Q139.59-4.76 140.62-5.31 141.66-5.86 141.66-6.91L141.66-6.91Q141.66-7.64 141.2-8.11 140.73-8.57 139.56-9.06 138.39-9.55 136.29-10.3L136.29-10.3Q133.19-11.43 131.6-13.01 130.02-14.6 130.02-17.65L130.02-17.65Q130.02-20.46 131.57-22.22 133.12-23.97 135.55-24.79 137.98-25.61 140.61-25.61L140.61-25.61Q143.96-25.61 145.31-24.99 146.67-24.37 147.06-24.02L147.06-24.02Q147.42-23.71 147.57-23.29L147.57-23.29Q147.89-22.34 148.06-20.78L148.06-20.78Q148.16-19.87 147.59-19.58L147.59-19.58Q147.3-19.41 146.67-19.21 146.03-19.02 145.4-18.87 144.76-18.73 144.45-18.73L144.45-18.73Q144.35-18.73 144.24-18.79 144.13-18.85 143.86-19.09L143.86-19.09Q143.54-19.41 142.77-19.82 142-20.24 140.66-20.24L140.66-20.24Q139.34-20.24 138.45-19.81 137.56-19.38 137.56-18.31L137.56-18.31Q137.56-17.14 138.7-16.55 139.83-15.97 142.44-15.04L142.44-15.04Q144.49-14.33 146.02-13.49 147.55-12.65 148.38-11.29 149.21-9.94 149.21-7.64L149.21-7.64Q149.21-4.66 147.58-2.84 145.96-1.03 143.43-0.21 140.91 0.61 138.15 0.61ZM176.33-22.44L176.33-22.44Q177.23-23.54 179.12-24.57 181.02-25.61 184.46-25.61L184.46-25.61Q189.34-25.61 191.51-23.1 193.69-20.58 193.69-15.55L193.69-15.55 193.69-1.29Q193.69-0.56 193.38-0.28 193.08 0 192.34 0L192.34 0 187.31 0Q186.58 0 186.28-0.28 185.97-0.56 185.97-1.29L185.97-1.29 185.97-14.28Q185.97-17.02 184.97-18.2 183.97-19.38 181.97-19.38L181.97-19.38Q180.19-19.38 179.15-18.59 178.11-17.8 177.67-16.46L177.67-16.46 177.67-1.29Q177.67-0.56 177.37-0.28 177.06 0 176.33 0L176.33 0 171.3 0Q170.57 0 170.26-0.28 169.96-0.56 169.96-1.29L169.96-1.29 169.96-14.28Q169.96-16.94 168.86-18.16 167.76-19.38 165.98-19.38L165.98-19.38Q164.29-19.38 163.27-18.55 162.24-17.72 161.68-16.46L161.68-16.46 161.68-1.29Q161.68-0.56 161.37-0.28 161.07 0 160.34 0L160.34 0 155.31 0Q154.57 0 154.27-0.28 153.96-0.56 153.96-1.29L153.96-1.29 153.96-21.75Q153.96-22.34 154.21-22.66L154.21-22.66Q154.72-23.34 155.44-24.05 156.16-24.76 157.21-25.56L157.21-25.56Q157.53-25.81 157.82-25.81L157.82-25.81Q158.09-25.81 158.43-25.56L158.43-25.56Q159.46-24.76 160.19-24.02 160.92-23.29 161.48-22.51L161.48-22.51 161.61-22.51Q162.44-23.56 164.19-24.58 165.95-25.61 169.22-25.61L169.22-25.61Q172.35-25.61 173.86-24.67 175.38-23.73 176.33-22.44ZM206.75 0.61L206.75 0.61Q203.16 0.61 201.04-1.4 198.93-3.42 198.93-6.96L198.93-6.96Q198.93-8.79 199.6-10.36 200.28-11.94 201.95-13.15 203.62-14.36 206.64-15.09 209.65-15.82 214.34-15.94L214.34-15.94Q214.34-18.16 213.23-19.14 212.12-20.12 209.89-20.12L209.89-20.12Q207.89-20.12 206.62-19.43 205.35-18.75 205.04-18.51L205.04-18.51Q204.69-18.21 204.21-18.29L204.21-18.29Q203.55-18.38 202.8-18.63 202.06-18.87 201.2-19.19L201.2-19.19Q201.08-19.24 200.93-19.35 200.79-19.46 200.76-19.68L200.76-19.68Q200.76-19.8 200.79-19.98 200.81-20.17 200.91-20.65L200.91-20.65Q201.01-21.14 201.2-21.86 201.4-22.58 201.57-22.97L201.57-22.97Q201.79-23.39 202.3-23.75L202.3-23.75Q202.72-24.1 204.82-24.85 206.92-25.61 210.9-25.61L210.9-25.61Q221.86-25.61 221.86-14.94L221.86-14.94 221.86-1.12Q221.86-0.66 221.6-0.33 221.34 0 220.73 0L220.73 0 217.07 0Q216.68 0 216.38-0.11 216.07-0.22 215.8-0.54L215.8-0.54 214.29-2.49 214.12-2.49Q213-0.85 211.1-0.12 209.21 0.61 206.75 0.61ZM209.43-5.05L209.43-5.05Q211.68-5.05 212.82-6.2 213.97-7.35 214.29-8.57L214.29-8.57 214.29-11.28Q210.9-11.28 209.2-10.75 207.5-10.23 206.94-9.39 206.38-8.54 206.38-7.57L206.38-7.57Q206.38-6.15 207.26-5.6 208.14-5.05 209.43-5.05ZM238.33 0.61L238.33 0.61Q230.18 0.61 230.18-7.86L230.18-7.86 230.18-19.31 227.42-19.31Q226.69-19.31 226.41-19.62 226.13-19.92 226.13-20.65L226.13-20.65 226.13-23.66Q226.13-24.39 226.41-24.69 226.69-25 227.42-25L227.42-25 230.18-25 230.18-28.93Q230.18-29.52 230.42-29.83L230.42-29.83Q231.45-31.18 233.43-32.74L233.43-32.74Q233.77-32.98 234.04-32.98L234.04-32.98Q234.33-32.98 234.62-32.74L234.62-32.74Q235.67-31.93 236.39-31.23 237.11-30.52 237.63-29.83L237.63-29.83Q237.87-29.52 237.87-28.93L237.87-28.93 237.87-25 242.19-25Q242.92-25 243.21-24.69 243.49-24.39 243.49-23.66L243.49-23.66 243.49-20.65Q243.49-19.92 243.21-19.62 242.92-19.31 242.19-19.31L242.19-19.31 237.87-19.31 237.87-9.2Q237.87-5.3 240.7-5.3L240.7-5.3Q241.14-5.3 241.51-5.38 241.87-5.47 242.14-5.57L242.14-5.57Q242.66-5.76 242.86-5.71 243.07-5.66 243.24-5.18L243.24-5.18 244.66-1.39Q244.88-0.78 244.36-0.51L244.36-0.51Q244-0.34 242.59 0.13 241.19 0.61 238.33 0.61ZM260.99 0.61L260.99 0.61Q256.86 0.61 253.81-0.72 250.76-2.05 249.07-4.86 247.39-7.67 247.39-12.11L247.39-12.11Q247.39-18.77 250.81-22.19 254.23-25.61 259.89-25.61L259.89-25.61Q263.58-25.61 266.13-24.29 268.68-22.97 270.01-20.65 271.34-18.33 271.34-15.36L271.34-15.36Q271.34-12.45 269.85-11.3 268.36-10.16 265.5-10.16L265.5-10.16 255.03-10.16Q255.23-7.64 256.87-6.32 258.52-5 261.35-5L261.35-5Q263.6-5 264.96-5.68 266.31-6.35 266.85-6.74L266.85-6.74Q267.31-7.08 267.9-7.06L267.9-7.06Q268.36-7.06 269.23-6.87 270.09-6.69 270.95-6.2L270.95-6.2Q271.56-5.88 271.56-5.32L271.56-5.32Q271.56-5 271.44-4.42L271.44-4.42Q271.36-4.08 271.19-3.43 271.02-2.78 270.75-2.22L270.75-2.22Q270.61-1.95 270.29-1.71L270.29-1.71Q269.8-1.37 268.72-0.81 267.63-0.24 265.75 0.18 263.87 0.61 260.99 0.61ZM254.98-15.16L254.98-15.16 262.94-15.16Q264.19-15.16 264.19-16.31L264.19-16.31Q264.19-18.04 263.1-19.23 262.01-20.41 259.84-20.41L259.84-20.41Q257.47-20.41 256.36-18.9 255.25-17.38 254.98-15.16Z" fill="#2e2e3a" data-fill-palette-color="primary"></path></g></svg></g></svg></g><g transform="matrix(1,0,0,1,0,60.9123926674683)"><svg viewBox="0 0 232.209792 18.226456660550454" height="18.226456660550454" width="232.209792"><g transform="matrix(1,0,0,1,0,0)"><svg width="232.209792" viewBox="0.95 -37.9 637.5699999999999 50.05" height="18.226456660550454" data-palette-color="#2e2e3a"><path d="M0.95 0L12.65-34.1 17.85-34.1 29.55 0 25.2 0 22.2-9.1 8.35-9.1 5.3 0 0.95 0ZM9.65-13.1L20.85-13.1 15.35-30.1 15.2-30.1 9.65-13.1ZM50.2-24.85L49.4-21.5Q48.55-21.7 47.05-21.93 45.55-22.15 44-22.15L44-22.15Q41.75-22.15 40.32-21.25 38.9-20.35 38.1-18.93 37.3-17.5 37-15.78 36.7-14.05 36.7-12.4L36.7-12.4Q36.7-9.85 37.35-8.03 38-6.2 39.07-5.05 40.15-3.9 41.55-3.38 42.95-2.85 44.5-2.85L44.5-2.85Q45.55-2.85 46.52-2.98 47.5-3.1 48.32-3.28 49.15-3.45 49.9-3.7L49.9-3.7 50.7-0.35Q49.65-0.05 48.75 0.15 47.85 0.35 46.62 0.5 45.4 0.65 44 0.65L44 0.65Q41.25 0.65 39.1-0.05 36.95-0.75 35.47-2.3 34-3.85 33.22-6.35 32.45-8.85 32.45-12.45L32.45-12.45Q32.45-15.95 33.42-18.48 34.4-21 36-22.58 37.6-24.15 39.67-24.9 41.75-25.65 44-25.65L44-25.65Q45.2-25.65 46.32-25.53 47.45-25.4 48.3-25.25L48.3-25.25Q49.3-25.05 50.2-24.85L50.2-24.85ZM71.44-24.85L70.65-21.5Q69.8-21.7 68.3-21.93 66.8-22.15 65.25-22.15L65.25-22.15Q63-22.15 61.57-21.25 60.15-20.35 59.34-18.93 58.55-17.5 58.25-15.78 57.95-14.05 57.95-12.4L57.95-12.4Q57.95-9.85 58.59-8.03 59.25-6.2 60.32-5.05 61.4-3.9 62.8-3.38 64.19-2.85 65.75-2.85L65.75-2.85Q66.8-2.85 67.77-2.98 68.75-3.1 69.57-3.28 70.39-3.45 71.15-3.7L71.15-3.7 71.94-0.35Q70.9-0.05 70 0.15 69.09 0.35 67.87 0.5 66.64 0.65 65.25 0.65L65.25 0.65Q62.5 0.65 60.34-0.05 58.2-0.75 56.72-2.3 55.24-3.85 54.47-6.35 53.7-8.85 53.7-12.45L53.7-12.45Q53.7-15.95 54.67-18.48 55.65-21 57.25-22.58 58.84-24.15 60.92-24.9 63-25.65 65.25-25.65L65.25-25.65Q66.44-25.65 67.57-25.53 68.69-25.4 69.55-25.25L69.55-25.25Q70.55-25.05 71.44-24.85L71.44-24.85ZM94.14-3.95L94.89-0.6Q93.74-0.25 92.52 0 91.29 0.25 89.82 0.45 88.34 0.65 86.74 0.65L86.74 0.65Q84.24 0.65 82.09-0.05 79.94-0.75 78.34-2.3 76.74-3.85 75.82-6.33 74.89-8.8 74.89-12.4L74.89-12.4Q74.89-15.65 75.79-18.13 76.69-20.6 78.27-22.28 79.84-23.95 81.97-24.8 84.09-25.65 86.59-25.65L86.59-25.65Q89.04-25.65 90.84-24.7 92.64-23.75 93.82-22.13 94.99-20.5 95.57-18.32 96.14-16.15 96.14-13.75L96.14-13.75 95.39-11.55 79.24-11.55Q79.24-10 79.64-8.45 80.04-6.9 81.02-5.65 81.99-4.4 83.57-3.63 85.14-2.85 87.49-2.85L87.49-2.85Q88.99-2.85 90.24-3.03 91.49-3.2 92.42-3.43 93.34-3.65 94.14-3.95L94.14-3.95ZM79.39-14.75L91.99-14.75Q91.99-15.1 91.84-16.3 91.69-17.5 91.14-18.8 90.59-20.1 89.44-21.13 88.29-22.15 86.39-22.15L86.39-22.15Q84.29-22.15 82.94-21.28 81.59-20.4 80.79-19.2 79.99-18 79.69-16.75 79.39-15.5 79.39-14.75L79.39-14.75ZM115.89-24.6L115.19-21.05Q113.09-21.7 111.47-21.93 109.84-22.15 108.49-22.15L108.49-22.15Q106.74-22.15 105.57-21.3 104.39-20.45 104.39-19.1L104.39-19.1Q104.44-17.9 105.44-17.05 106.44-16.2 107.77-15.53 109.09-14.85 110.72-14.05 112.34-13.25 113.77-12.25 115.19-11.25 116.09-9.85 116.99-8.45 117.04-6.5L117.04-6.5Q116.99-4.4 116.12-3.03 115.24-1.65 113.87-0.83 112.49 0 110.89 0.33 109.29 0.65 107.89 0.65L107.89 0.65Q106.09 0.65 104.17 0.45 102.24 0.25 100.04-0.4L100.04-0.4 100.79-4Q103.04-3.4 104.89-3.13 106.74-2.85 107.94-2.85L107.94-2.85Q108.84-2.85 109.72-3.05 110.59-3.25 111.29-3.63 111.99-4 112.42-4.6 112.84-5.2 112.84-5.95L112.84-5.95Q112.79-7.35 111.89-8.33 110.99-9.3 109.57-10.08 108.14-10.85 106.52-11.63 104.89-12.4 103.47-13.43 102.04-14.45 101.09-15.88 100.14-17.3 100.14-19.4L100.14-19.4Q100.14-20.9 100.92-22.08 101.69-23.25 102.92-24.03 104.14-24.8 105.62-25.23 107.09-25.65 108.49-25.65L108.49-25.65Q109.94-25.65 111.74-25.43 113.54-25.2 115.89-24.6L115.89-24.6ZM136.74-24.6L136.04-21.05Q133.94-21.7 132.31-21.93 130.69-22.15 129.34-22.15L129.34-22.15Q127.59-22.15 126.41-21.3 125.24-20.45 125.24-19.1L125.24-19.1Q125.29-17.9 126.29-17.05 127.29-16.2 128.61-15.53 129.94-14.85 131.56-14.05 133.19-13.25 134.61-12.25 136.04-11.25 136.94-9.85 137.84-8.45 137.89-6.5L137.89-6.5Q137.84-4.4 136.96-3.03 136.09-1.65 134.71-0.83 133.34 0 131.74 0.33 130.14 0.65 128.74 0.65L128.74 0.65Q126.94 0.65 125.01 0.45 123.09 0.25 120.89-0.4L120.89-0.4 121.64-4Q123.89-3.4 125.74-3.13 127.59-2.85 128.79-2.85L128.79-2.85Q129.69-2.85 130.56-3.05 131.44-3.25 132.14-3.63 132.84-4 133.26-4.6 133.69-5.2 133.69-5.95L133.69-5.95Q133.64-7.35 132.74-8.33 131.84-9.3 130.41-10.08 128.99-10.85 127.36-11.63 125.74-12.4 124.31-13.43 122.89-14.45 121.94-15.88 120.99-17.3 120.99-19.4L120.99-19.4Q120.99-20.9 121.76-22.08 122.54-23.25 123.76-24.03 124.99-24.8 126.46-25.23 127.94-25.65 129.34-25.65L129.34-25.65Q130.79-25.65 132.59-25.43 134.39-25.2 136.74-24.6L136.74-24.6ZM143.28 0L143.28-25.2 147.28-25.65 147.28 0 143.28 0ZM142.63-32.35L142.63-32.35Q142.63-33.5 143.41-34.27 144.19-35.05 145.34-35.05L145.34-35.05Q146.53-35.05 147.36-34.27 148.19-33.5 148.19-32.35L148.19-32.35Q148.19-31.2 147.36-30.43 146.53-29.65 145.34-29.65L145.34-29.65Q144.19-29.65 143.41-30.43 142.63-31.2 142.63-32.35ZM154.43-1.5L154.43-37.45 158.43-37.9 158.43-23Q159.53-23.75 160.73-24.3L160.73-24.3Q161.73-24.8 162.98-25.23 164.23-25.65 165.48-25.65L165.48-25.65Q167.53-25.65 169.36-24.85 171.18-24.05 172.56-22.45 173.93-20.85 174.73-18.4 175.53-15.95 175.53-12.6L175.53-12.6Q175.53-8.9 174.51-6.38 173.48-3.85 171.76-2.3 170.03-0.75 167.83-0.05 165.63 0.65 163.33 0.65L163.33 0.65Q161.03 0.65 159.36 0.33 157.68 0 156.58-0.4L156.58-0.4Q155.28-0.9 154.43-1.5L154.43-1.5ZM158.43-19.4L158.43-3.7Q159.08-3.45 159.83-3.28 160.58-3.1 161.46-2.98 162.33-2.85 163.33-2.85L163.33-2.85Q165.63-2.85 167.18-3.5 168.73-4.15 169.63-5.4 170.53-6.65 170.91-8.43 171.28-10.2 171.28-12.4L171.28-12.4Q171.28-14.15 170.91-15.9 170.53-17.65 169.73-19.03 168.93-20.4 167.76-21.28 166.58-22.15 165.03-22.15L165.03-22.15Q163.98-22.15 162.83-21.73 161.68-21.3 160.68-20.75L160.68-20.75Q159.53-20.15 158.43-19.4L158.43-19.4ZM181.38 0L181.38-25.2 185.38-25.65 185.38 0 181.38 0ZM180.73-32.35L180.73-32.35Q180.73-33.5 181.5-34.27 182.28-35.05 183.43-35.05L183.43-35.05Q184.63-35.05 185.46-34.27 186.28-33.5 186.28-32.35L186.28-32.35Q186.28-31.2 185.46-30.43 184.63-29.65 183.43-29.65L183.43-29.65Q182.28-29.65 181.5-30.43 180.73-31.2 180.73-32.35ZM192.58 0L192.58-37.45 196.58-37.9 196.58 0 192.58 0ZM203.77 0L203.77-25.2 207.77-25.65 207.77 0 203.77 0ZM203.12-32.35L203.12-32.35Q203.12-33.5 203.9-34.27 204.67-35.05 205.82-35.05L205.82-35.05Q207.02-35.05 207.85-34.27 208.67-33.5 208.67-32.35L208.67-32.35Q208.67-31.2 207.85-30.43 207.02-29.65 205.82-29.65L205.82-29.65Q204.67-29.65 203.9-30.43 203.12-31.2 203.12-32.35ZM216.82-32.15L220.82-32.65 220.82-25.15 228.07-25.15 228.07-21.9 220.82-21.9 220.82-8.55Q220.82-6.9 220.9-5.8 220.97-4.7 221.22-4.05 221.47-3.4 221.92-3.13 222.37-2.85 223.07-2.85L223.07-2.85Q224.97-2.9 227.47-4.25L227.47-4.25 228.67-1.2Q227.02-0.1 225.6 0.28 224.17 0.65 222.77 0.65L222.77 0.65Q219.47 0.65 218.15-1.23 216.82-3.1 216.82-7.45L216.82-7.45 216.82-21.9 212.22-21.9 212.22-25.15 216.82-25.15 216.82-32.15ZM239.97-0.65L229.92-25.15 234.17-25.15 238.87-13.8Q239.57-12.15 240.14-10.5 240.72-8.85 241.17-7.55L241.17-7.55Q241.72-6 242.12-4.55L242.12-4.55 242.17-4.55Q242.62-6 243.17-7.55L243.17-7.55Q243.62-8.85 244.22-10.5 244.82-12.15 245.47-13.8L245.47-13.8 249.82-25.15 254.02-25.15 242.12 4.85Q241.42 6.7 240.29 8.05 239.17 9.4 238.12 10.3L238.12 10.3Q236.87 11.35 235.52 12.1L235.52 12.1 233.57 8.65Q234.62 8.15 235.52 7.4L235.52 7.4Q236.32 6.75 237.12 5.78 237.92 4.8 238.42 3.45L238.42 3.45 239.97-0.65ZM283.46-5.85L283.46-11.55Q282.46-11.5 281.56-11.45 280.66-11.4 279.79-11.33 278.91-11.25 278.21-11.15L278.21-11.15Q274.61-10.7 273.11-9.58 271.61-8.45 271.61-6.35L271.61-6.35Q271.61-4.6 272.69-3.73 273.76-2.85 275.51-2.85L275.51-2.85Q277.91-2.85 279.79-3.68 281.66-4.5 283.46-5.85L283.46-5.85ZM283.91 0.4L283.41-2.35Q281.06-1 279.04-0.18 277.01 0.65 274.66 0.65L274.66 0.65Q271.31 0.65 269.34-0.98 267.36-2.6 267.36-6.35L267.36-6.35Q267.36-8.3 268.36-9.75 269.36-11.2 270.99-12.18 272.61-13.15 274.66-13.7 276.71-14.25 278.86-14.4L278.86-14.4Q279.76-14.5 281.21-14.58 282.66-14.65 283.46-14.7L283.46-14.7Q283.46-16.45 283.36-17.82 283.26-19.2 282.76-20.18 282.26-21.15 281.29-21.65 280.31-22.15 278.51-22.15L278.51-22.15Q277.06-22.15 275.71-21.98 274.36-21.8 273.31-21.6L273.31-21.6Q272.06-21.35 271.01-21.05L271.01-21.05 270.21-24.5Q271.46-24.8 272.91-25.05L272.91-25.05Q274.16-25.3 275.81-25.48 277.46-25.65 279.36-25.65L279.36-25.65Q281.91-25.65 283.49-24.9 285.06-24.15 285.94-22.88 286.81-21.6 287.14-19.98 287.46-18.35 287.46-16.55L287.46-16.55 287.46-4.55Q287.46-3.85 287.49-3.08 287.51-2.3 287.59-1.55 287.66-0.8 287.76 0L287.76 0 283.91 0.4ZM296.36-32.15L300.36-32.65 300.36-25.15 307.61-25.15 307.61-21.9 300.36-21.9 300.36-8.55Q300.36-6.9 300.44-5.8 300.51-4.7 300.76-4.05 301.01-3.4 301.46-3.13 301.91-2.85 302.61-2.85L302.61-2.85Q304.51-2.9 307.01-4.25L307.01-4.25 308.21-1.2Q306.56-0.1 305.14 0.28 303.71 0.65 302.31 0.65L302.31 0.65Q299.01 0.65 297.69-1.23 296.36-3.1 296.36-7.45L296.36-7.45 296.36-21.9 291.76-21.9 291.76-25.15 296.36-25.15 296.36-32.15ZM332.06 0L332.06-12.4 321.16-34.1 325.81-34.1 334.16-17.55 342.56-34.1 347.21-34.1 336.31-12.4 336.31 0 332.06 0ZM351.6-12.45L351.6-12.45Q351.6-7.6 353.78-5.23 355.95-2.85 359.65-2.85L359.65-2.85Q363.3-2.85 365.35-5.2 367.4-7.55 367.4-12.25L367.4-12.25Q367.4-17.25 365.23-19.7 363.05-22.15 359.3-22.15L359.3-22.15Q355.55-22.15 353.58-19.73 351.6-17.3 351.6-12.45ZM347.35-12.5L347.35-12.5Q347.35-16.3 348.55-18.82 349.75-21.35 351.6-22.88 353.45-24.4 355.58-25.03 357.7-25.65 359.6-25.65L359.6-25.65Q361.4-25.65 363.53-25.08 365.65-24.5 367.45-23.03 369.25-21.55 370.45-19.07 371.65-16.6 371.65-12.8L371.65-12.8Q371.65-8.85 370.43-6.25 369.2-3.65 367.35-2.13 365.5-0.6 363.35 0.03 361.2 0.65 359.35 0.65L359.35 0.65Q357.45 0.65 355.35 0.05 353.25-0.55 351.48-2.02 349.7-3.5 348.53-6.05 347.35-8.6 347.35-12.5ZM392.8 0.4L392.5-2.75 392.4-2.75Q391.95-2.4 391.1-1.83 390.25-1.25 389.15-0.7 388.05-0.15 386.73 0.25 385.4 0.65 384.05 0.65L384.05 0.65Q382.2 0.65 380.9 0.18 379.6-0.3 378.8-1.4 378-2.5 377.65-4.3 377.3-6.1 377.3-8.8L377.3-8.8 377.3-25.15 381.3-25.15 381.3-9.4Q381.3-7.9 381.35-6.7 381.4-5.5 381.7-4.65 382-3.8 382.68-3.33 383.35-2.85 384.6-2.85L384.6-2.85Q385.9-2.85 387.3-3.4 388.7-3.95 389.85-4.65L389.85-4.65Q391.2-5.45 392.5-6.45L392.5-6.45 392.5-25.15 396.5-25.15 396.5-3.25Q396.55-1.45 396.75 0L396.75 0 392.8 0.4ZM403.8 0L403.8-21.1Q403.8-22.25 403.55-24.7L403.55-24.7 407.25-25.2 407.65-21.55 407.7-21.55Q408.6-22.7 409.45-23.55 410.3-24.4 411.22-25.03 412.15-25.65 413-25.65L413-25.65Q414.15-25.7 416.2-25.4L416.2-25.4 415.3-21.55Q413.65-21.85 413-21.8L413-21.8Q412.15-21.8 411.2-21 410.25-20.2 409.55-19.3L409.55-19.3Q408.65-18.2 407.8-16.8L407.8-16.8 407.8 0 403.8 0ZM432.84 0L432.84-34.1 453.75-34.1 453.75-30.25 437.05-30.25 437.05-19.35 452.55-19.35 452.55-15.6 437.05-15.6 437.05 0 432.84 0ZM459.09 0L459.09-25.2 463.09-25.65 463.09 0 459.09 0ZM458.44-32.35L458.44-32.35Q458.44-33.5 459.22-34.27 459.99-35.05 461.14-35.05L461.14-35.05Q462.34-35.05 463.17-34.27 463.99-33.5 463.99-32.35L463.99-32.35Q463.99-31.2 463.17-30.43 462.34-29.65 461.14-29.65L461.14-29.65Q459.99-29.65 459.22-30.43 458.44-31.2 458.44-32.35ZM470.34 0L470.34-20.15Q470.39-21.2 470.09-24.7L470.09-24.7 473.79-25.2 474.34-22Q475.84-23 477.31-23.75 478.79-24.5 480.34-25.08 481.89-25.65 483.34-25.65L483.34-25.65Q485.39-25.65 486.76-25.18 488.14-24.7 488.99-23.6 489.84-22.5 490.21-20.7 490.59-18.9 490.59-16.2L490.59-16.2 490.59 0 486.59 0 486.59-15.75Q486.59-17.25 486.54-18.43 486.49-19.6 486.12-20.43 485.74-21.25 484.96-21.7 484.19-22.15 482.79-22.15L482.79-22.15Q481.49-22.15 480.04-21.58 478.59-21 477.19-20.25 475.79-19.5 474.34-18.5L474.34-18.5 474.34 0 470.34 0ZM517.34-24.55L517.34 2.4Q517.34 4.25 516.94 6 516.54 7.75 515.41 9.13 514.29 10.5 512.26 11.33 510.24 12.15 506.94 12.15L506.94 12.15Q504.84 12.1 503.29 11.9 501.74 11.7 500.34 11.33 498.94 10.95 497.79 10.45L497.79 10.45 498.84 6.95Q500.79 7.8 502.81 8.25 504.84 8.7 506.44 8.7L506.44 8.7Q508.19 8.7 509.49 8.35 510.79 8 511.66 7.18 512.54 6.35 512.96 5 513.39 3.65 513.39 1.65L513.39 1.65 513.39-2Q512.34-1.3 511.21-0.73 510.09-0.15 508.81 0.25 507.54 0.65 506.34 0.65L506.34 0.65Q501.69 0.65 498.99-2.63 496.29-5.9 496.29-12.4L496.29-12.4Q496.29-16.15 497.46-18.68 498.64-21.2 500.44-22.75 502.24-24.3 504.39-24.98 506.54-25.65 508.49-25.65L508.49-25.65Q511.04-25.65 513.16-25.23 515.29-24.8 517.34-24.55L517.34-24.55ZM506.79-2.85L506.79-2.85Q507.89-2.85 509.04-3.25 510.19-3.65 511.26-4.2 512.34-4.75 513.39-5.5L513.39-5.5 513.39-21.45Q512.79-21.6 511.99-21.8L511.99-21.8Q511.29-21.9 510.39-22.03 509.49-22.15 508.49-22.15L508.49-22.15Q506.39-22.15 504.89-21.4 503.39-20.65 502.41-19.35 501.44-18.05 500.99-16.3 500.54-14.55 500.54-12.6L500.54-12.6Q500.54-10.85 500.91-9.1 501.29-7.35 502.09-5.95 502.89-4.55 504.04-3.7 505.19-2.85 506.79-2.85ZM542.38-3.95L543.13-0.6Q541.98-0.25 540.76 0 539.53 0.25 538.06 0.45 536.58 0.65 534.98 0.65L534.98 0.65Q532.48 0.65 530.33-0.05 528.18-0.75 526.58-2.3 524.98-3.85 524.06-6.33 523.13-8.8 523.13-12.4L523.13-12.4Q523.13-15.65 524.03-18.13 524.93-20.6 526.51-22.28 528.08-23.95 530.21-24.8 532.33-25.65 534.83-25.65L534.83-25.65Q537.28-25.65 539.08-24.7 540.88-23.75 542.06-22.13 543.23-20.5 543.81-18.32 544.38-16.15 544.38-13.75L544.38-13.75 543.63-11.55 527.48-11.55Q527.48-10 527.88-8.45 528.28-6.9 529.26-5.65 530.23-4.4 531.81-3.63 533.38-2.85 535.73-2.85L535.73-2.85Q537.23-2.85 538.48-3.03 539.73-3.2 540.66-3.43 541.58-3.65 542.38-3.95L542.38-3.95ZM527.63-14.75L540.23-14.75Q540.23-15.1 540.08-16.3 539.93-17.5 539.38-18.8 538.83-20.1 537.68-21.13 536.53-22.15 534.63-22.15L534.63-22.15Q532.53-22.15 531.18-21.28 529.83-20.4 529.03-19.2 528.23-18 527.93-16.75 527.63-15.5 527.63-14.75L527.63-14.75ZM549.88 0L549.88-21.1Q549.88-22.25 549.63-24.7L549.63-24.7 553.33-25.2 553.73-21.55 553.78-21.55Q554.68-22.7 555.53-23.55 556.38-24.4 557.31-25.03 558.23-25.65 559.08-25.65L559.08-25.65Q560.23-25.7 562.28-25.4L562.28-25.4 561.38-21.55Q559.73-21.85 559.08-21.8L559.08-21.8Q558.23-21.8 557.28-21 556.33-20.2 555.63-19.3L555.63-19.3Q554.73-18.2 553.88-16.8L553.88-16.8 553.88 0 549.88 0ZM568.53-32.15L572.53-32.65 572.53-25.15 579.78-25.15 579.78-21.9 572.53-21.9 572.53-8.55Q572.53-6.9 572.6-5.8 572.68-4.7 572.93-4.05 573.18-3.4 573.63-3.13 574.08-2.85 574.78-2.85L574.78-2.85Q576.68-2.9 579.18-4.25L579.18-4.25 580.38-1.2Q578.73-0.1 577.3 0.28 575.88 0.65 574.48 0.65L574.48 0.65Q571.18 0.65 569.85-1.23 568.53-3.1 568.53-7.45L568.53-7.45 568.53-21.9 563.93-21.9 563.93-25.15 568.53-25.15 568.53-32.15ZM584.88 0L584.88-25.2 588.88-25.65 588.88 0 584.88 0ZM584.23-32.35L584.23-32.35Q584.23-33.5 585-34.27 585.78-35.05 586.93-35.05L586.93-35.05Q588.13-35.05 588.95-34.27 589.78-33.5 589.78-32.35L589.78-32.35Q589.78-31.2 588.95-30.43 588.13-29.65 586.93-29.65L586.93-29.65Q585.78-29.65 585-30.43 584.23-31.2 584.23-32.35ZM596.12 11.4L596.12-19.35Q596.12-21.15 595.87-24.7L595.87-24.7 599.57-25.2 600.02-22.5Q601.02-23.35 602.1-24.03 603.17-24.7 604.45-25.18 605.72-25.65 607.17-25.65L607.17-25.65Q609.22-25.65 611.05-24.95 612.87-24.25 614.25-22.7 615.62-21.15 616.42-18.68 617.22-16.2 617.22-12.6L617.22-12.6Q617.22-8.95 616.15-6.43 615.07-3.9 613.35-2.33 611.62-0.75 609.45-0.05 607.27 0.65 605.02 0.65L605.02 0.65Q602.62 0.6 600.12 0.05L600.12 0.05 600.12 10.9 596.12 11.4ZM605.02-2.85L605.02-2.85Q607.12-2.85 608.62-3.6 610.12-4.35 611.1-5.68 612.07-7 612.52-8.72 612.97-10.45 612.97-12.4L612.97-12.4Q612.97-14.15 612.65-15.9 612.32-17.65 611.6-19.03 610.87-20.4 609.67-21.28 608.47-22.15 606.72-22.15L606.72-22.15Q605.42-22.15 604.27-21.68 603.12-21.2 602.1-20.53 601.07-19.85 600.12-19L600.12-19 600.12-3.65Q600.67-3.45 601.35-3.28 602.02-3.1 602.95-2.98 603.87-2.85 605.02-2.85ZM637.37-24.6L636.67-21.05Q634.57-21.7 632.95-21.93 631.32-22.15 629.97-22.15L629.97-22.15Q628.22-22.15 627.05-21.3 625.87-20.45 625.87-19.1L625.87-19.1Q625.92-17.9 626.92-17.05 627.92-16.2 629.25-15.53 630.57-14.85 632.2-14.05 633.82-13.25 635.25-12.25 636.67-11.25 637.57-9.85 638.47-8.45 638.52-6.5L638.52-6.5Q638.47-4.4 637.6-3.03 636.72-1.65 635.35-0.83 633.97 0 632.37 0.33 630.77 0.65 629.37 0.65L629.37 0.65Q627.57 0.65 625.65 0.45 623.72 0.25 621.52-0.4L621.52-0.4 622.27-4Q624.52-3.4 626.37-3.13 628.22-2.85 629.42-2.85L629.42-2.85Q630.32-2.85 631.2-3.05 632.07-3.25 632.77-3.63 633.47-4 633.9-4.6 634.32-5.2 634.32-5.95L634.32-5.95Q634.27-7.35 633.37-8.33 632.47-9.3 631.05-10.08 629.62-10.85 628-11.63 626.37-12.4 624.95-13.43 623.52-14.45 622.57-15.88 621.62-17.3 621.62-19.4L621.62-19.4Q621.62-20.9 622.4-22.08 623.17-23.25 624.4-24.03 625.62-24.8 627.1-25.23 628.57-25.65 629.97-25.65L629.97-25.65Q631.42-25.65 633.22-25.43 635.02-25.2 637.37-24.6L637.37-24.6Z" opacity="1" transform="matrix(1,0,0,1,0,0)" fill="#2e2e3a" class="slogan-text-1" data-fill-palette-color="secondary" id="text-1"></path></svg></g></svg></g></svg></g></svg></g><g><svg viewBox="0 0 109.40052191745882 109.36988977132192" height="109.36988977132192" width="109.40052191745882"><g><svg xmlns="http://www.w3.org/2000/svg" xmlns:xlink="http://www.w3.org/1999/xlink" version="1.1" x="0" y="0" viewBox="0 0 100 99.972" style="enable-background:new 0 0 100 100;" xml:space="preserve" height="109.36988977132192" width="109.40052191745882" class="icon-icon-0" data-fill-palette-color="accent" id="icon-0"><g fill="#2e2e3a" data-fill-palette-color="accent"><path d="M100 50C100 22.386 77.614 0 50 0S0 22.386 0 50C0 65.173 6.76 78.766 17.431 87.936A25.4 25.4 0 0 1 14.952 76.966C14.952 64.951 23.291 54.849 34.485 52.138V64.703C29.959 66.931 26.836 71.59 26.836 76.966 26.836 84.499 32.965 90.627 40.497 90.627 48.03 90.627 54.158 84.499 54.158 76.966H66.042C66.042 87.077 60.137 95.834 51.595 99.972 78.471 99.129 100 77.08 100 50M74.637 85.803L67.051 72.023H39.721V38.385C36.456 36.266 34.295 32.593 34.295 28.41 34.295 21.847 39.616 16.526 46.179 16.526S58.063 21.846 58.063 28.41C58.063 33.018 55.439 37.011 51.605 38.982V43.508H66.042V55.392H51.605V60.137H74.074L85.048 80.071z" fill="#2e2e3a" data-fill-palette-color="accent"></path></g></svg></g></svg></g></svg></g><defs></defs></svg><rect width="395.52" height="83.7433697930384" fill="none" stroke="none" visibility="hidden"></rect></g></svg></g></svg>